<svg xmlns="http://www.w3.org/2000/svg" fill="none" viewBox="0 0 722 722"><path fill="#fff" d="M0 0h722v722H0z"/><path fill="#247DB9" d="m238 161 38.39 66.256 76.791-.006-38.4 66.25 38.4 66.25-76.791-.006L238 426l-38.39-66.256-76.791.006 38.4-66.25-38.4-66.25 76.791.006L238 161Z"/><path fill="#3D9388" d="m490 316 36.659 61.255 73.326-.005-36.668 61.25 36.668 61.25-73.326-.005L490 561l-36.659-61.255-73.326.005 36.668-61.25-36.668-61.25 73.326.005L490 316Z"/><path fill="#F2E934" d="m364 238 39.545 66.256 79.1-.006-39.555 66.25 39.555 66.25-79.1-.006L364 503l-39.545-66.256-79.1.006 39.555-66.25-39.555-66.25 79.1.006L364 238Z"/></svg>